<?xml version="1.0" encoding="utf-8"?>
<!-- Generator: Adobe Illustrator 21.1.0, SVG Export Plug-In . SVG Version: 6.00 Build 0)  -->
<svg version="1.1" id="Capa_1" xmlns="http://www.w3.org/2000/svg" xmlns:xlink="http://www.w3.org/1999/xlink" x="0px" y="0px" width="19px" height="18px" 
	 viewBox="0 0 30 30" style="enable-background:new 0 0 255.1 595.3;" xml:space="preserve">
<style type="text/css">
	.st0{fill:#3C4041;}
</style>
<path class="st0" d="M62.4,1.1C28.6,1.1,1.1,28.6,1.1,62.4c0,33.8,27.5,61.2,61.3,61.2s61.2-27.5,61.2-61.2
	C123.6,28.6,96.1,1.1,62.4,1.1z M62.4,32.5L77.5,71H47.2L62.4,32.5z M11.1,62.4c0-25.9,19.3-47.3,44.2-50.8
	c-5.5,13.6-11.1,27.7-17,42.3c-5.6,13.9-10.9,27.3-16.1,40.3C15.3,85.5,11.1,74.4,11.1,62.4z M33.4,104.6c0.5-1.1,0.8-2,1-2.4
	l6.9-17h42.1l7.6,19.6c-8.2,5.6-18.1,8.8-28.7,8.8C51.6,113.6,41.6,110.3,33.4,104.6z M102.4,94.3L69.4,11.6
	c25,3.4,44.2,24.9,44.2,50.8C113.6,74.4,109.4,85.5,102.4,94.3z"/>
</svg>
